<?xml version="1.0" encoding="utf-8"?>
<!-- Generator: Adobe Illustrator 26.3.1, SVG Export Plug-In . SVG Version: 6.00 Build 0)  -->
<svg version="1.1" id="Layer_1" xmlns="http://www.w3.org/2000/svg" xmlns:xlink="http://www.w3.org/1999/xlink" x="0px" y="0px"
	 viewBox="0 0 1920 1080" style="enable-background:new 0 0 1920 1080;" xml:space="preserve">
<style type="text/css">
	.st0{fill:#FFFFFF;}
</style>
<g>
	<path class="st0" d="M782.02-1819.22c-20.68,2.66-39.55,4.84-58.34,7.53c-108.46,15.57-216.89,31.46-321.61,65.36
		c-37.19,12.04-73.41,26.52-106.25,48.2c-20.79,13.72-39.73,29.5-51.67,52.01c-12.68,23.89-10.27,44.4,7.47,65.02
		c18.1,21.04,41.86,33.88,66.61,45.05c48.21,21.77,99.19,34.17,150.9,44.07c85.98,16.46,172.89,24.02,260.19,28.6
		c66.17,3.48,132.37,4.48,198.57,2.89c106-2.55,211.38-11.7,315.07-35.07c45.57-10.27,90.3-23.54,132.27-44.59
		c18.4-9.23,36.07-19.68,51.24-33.97c30.27-28.53,33.36-56.65,10.74-93.11c-12.59-20.29-32.26-33.17-52.81-44.35
		c-46.49-25.28-96.8-40.33-147.53-54.06c-82.28-22.27-165.97-38-249.79-53.09c-13.53-2.44-27.07-4.81-37.51-6.67
		c32.53,0,68.09-0.96,103.58,0.26c37.32,1.29,74.68,2.74,111.89,6.42c72.33,7.16,144.19,16.83,212.79,42.46
		c53.57,20.02,101.75,48.35,139.47,92.48c22,25.74,38.51,54.68,50.67,86.13c2.32,6.01,5.19,7.61,11.51,7.31
		c43.39-2.09,86.52-0.99,127.74,15.09c59.37,23.17,93.58,66.7,103.62,129.44c9.65,60.32-3.87,117.09-28.7,171.37
		c-39.43,86.22-99.21,154.23-184.01,198.66c-9.06,4.75-18.7,8.41-29.69,13.29c4.06-13.33,7.62-25.22,11.31-37.07
		c7.52-24.16,12.85-48.84,17.1-73.75c0.75-4.41,2.54-7.34,5.83-10.25c57.66-51.09,94.3-114.24,106.72-190.49
		c3.92-24.07,1.82-48.3-11.58-69.95c-15.32-24.76-39.72-33.74-66.9-36.96c-10.18-1.21-20.57-0.6-30.84-1.14
		c-5.9-0.31-7.19,2.04-6.79,7.69c2.46,34.43,1.58,68.83-1.42,103.21c-1.12,12.88-0.87,12.72-13.46,13.28
		c-126.7,5.6-248.24,33.11-363.54,86.49c-111.53,51.64-205.29,125.31-276.76,226.08c-35.69,50.32-63.96,104.54-83.9,163.01
		c-0.44,1.29-0.79,2.6-1.39,4.6c-3.92-3.63-4.62-8.12-6.12-12.03c-28.5-74.4-67.06-142.85-119.14-203.45
		c-59.85-69.63-131.51-123.93-213.06-165.62c-80.06-40.93-164.83-67.67-253-84.05c-46.9-8.72-94.25-13.8-141.93-15.51
		c-4.37-0.16-6.17-1.22-6.74-5.69c-9.82-77.4-12.36-154.33,15.56-229.11c26.89-72.03,76.63-123.42,144.14-158.64
		c56.14-29.29,116.53-44.63,178.56-54.33c108.65-16.98,218.12-15.95,327.6-14.18C779.16-1820.33,779.61-1820.04,782.02-1819.22z"/>
	<path class="st0" d="M1225.43-947.03c-37.54,11.25-69.76,31.99-99.66,56.59c-54.95,45.22-97.12,101.25-134.7,161.04
		c-29.56,47.02-55.38,96.09-78.47,146.58c-2.53,5.54-5.35,7.46-11.56,7.93c-32.9,2.51-65.72,2.93-98.61-0.05
		c-5.41-0.49-8.28-2.04-10.59-6.91c-25.92-54.67-53.59-108.4-86.56-159.23c-35.86-55.28-76.09-106.89-126.94-149.39
		c-26.53-22.17-55.43-40.56-87.94-52.81c-3.72-1.4-7.34-3.63-12.99-2.74c90.01,108.94,166.5,225.47,223.3,355.8
		c-21.81-3.5-41.7-9.37-61.37-15.95c-187.98-62.94-326.5-184.12-419.44-358.23c-43.86-82.16-70.53-170-81.55-262.53
		c-1.43-11.97-2.15-24.03-3.77-35.98c-0.76-5.62,0.61-6.81,6.26-6.69c37.43,0.85,74.54,5.03,111.36,11.28
		c103.98,17.64,202.39,51.27,292.99,105.85c134.68,81.14,229.19,196.36,287.3,342.01c6.08,15.25,11.62,30.72,17.43,46.09
		c0.48,1.27,0.35,3.02,2.85,3.35c9.42-38.72,24-75.63,41.72-111.27c47.32-95.16,115.65-172.44,201.32-234.62
		c109.2-79.25,231.16-128.91,363.1-154.76c32.62-6.39,65.62-10.61,99.04-9.52c12.42,0.4,12.21,0.5,11.37,12.72
		c-7.34,105.96-36.88,205.68-87.84,298.46c-88.83,161.72-217.03,279.81-391.07,345.28c-27.68,10.41-56.06,18.95-85.55,24.46
		c-1.16-2.84,0.72-4.68,1.55-6.56c52.55-119.7,121.76-229.03,204.95-329.67c5.21-6.31,10.09-12.9,15.12-19.36
		c0.74-0.19,1.69-0.39,1.06-1.37C1227.34-947.51,1226.15-947.12,1225.43-947.03z M477.53-946.83c-0.2-0.22-0.38-0.59-0.59-0.61
		c-0.22-0.02-0.46,0.31-0.7,0.48c0.2,0.22,0.38,0.59,0.59,0.61C477.04-946.33,477.29-946.66,477.53-946.83z"/>
	<path class="st0" d="M778.65-1656.81c15.01-23.12,24.2-48.74,31.55-75.03c18.79-67.2,25.07-135.1,10.1-203.99
		c-6.29-28.97-18.6-55.21-33.99-80.6c-56.52-93.24-107.62-189.17-138.27-294.58c-14.85-51.09-23.33-103.08-20.76-156.58
		c4.25-88.49,41.17-160.35,109.26-216.49c12.24-10.09,24.68-19.95,38.64-27.66c0.32,0.37,0.65,0.72,1,1.05
		c-8.51,14.69-18.67,28.33-26.89,43.24c-43.19,78.34-49.07,160.41-25.43,245.67c17.2,62.01,45.49,119.28,74.47,176.28
		c29.22,57.47,60.11,114.16,82.77,174.74c18.96,50.7,32.81,102.7,30.5,157.23c-3.88,91.55-34.73,172.03-102.8,235.82
		c-7.68,7.2-16.51,13.19-24.85,19.67c-1.47,1.14-2.94,3.33-5.17,1L778.65-1656.81z"/>
	<path class="st0" d="M959.31-2491.46c-28.07,36.08-39.19,76.71-34.82,121.74c3,30.96,12.45,60.24,23.91,88.98
		c19.03,47.71,43.49,92.96,63.26,140.32c12.69,30.4,23.4,61.33,27.9,94.24c7.84,57.27-9.23,106.14-48.59,147.72
		c-6.06,6.4-12.74,12.2-19.18,18.24c-1.26,1.19-2.69,2.19-4.61,3.74c0-1.45-0.29-2.37,0.04-2.89
		c28.79-44.61,30.75-92.51,17.89-142.41c-10.6-41.15-28.33-79.44-46.15-117.75c-20.64-44.38-42.68-88.2-56.06-135.6
		c-11.9-42.19-15.79-84.37,0.67-126.34C898.67-2439.95,925.95-2468.29,959.31-2491.46z"/>
	<path class="st0" d="M775.18-2711.74c0.7-0.19,1.92-0.7,2.03-0.53c0.61,0.98-0.14,1.39-1.03,1.58
		C775.83-2711.03,775.5-2711.38,775.18-2711.74z"/>
	<path class="st0" d="M778.79-1657.04l0.09,0.37c0,0-0.22-0.16-0.22-0.14C778.65-1656.81,778.79-1657.04,778.79-1657.04z"/>
</g>
</svg>
